<svg xmlns="http://www.w3.org/2000/svg" width="42" height="32"><g fill="#828282"><path d="M37 29c1.196 0 2-.804 2-2V.5a.5.5 0 0 0-1 0V27c0 .87-.627 1-1 1-.103 0-1-.028-1-1V.5a.5.5 0 0 0-1 0V27c0 1.313 1.006 2 2 2zM4.5 21h10a.5.5 0 0 0 .5-.5v-9a.5.5 0 0 0-.5-.5h-10a.5.5 0 0 0-.5.5v9a.5.5 0 0 0 .5.5zm.5-9h9v8H5v-8zM4.5 8h24a.5.5 0 0 0 .5-.5v-4a.5.5 0 0 0-.5-.5h-24a.5.5 0 0 0-.5.5v4a.5.5 0 0 0 .5.5zM5 4h23v3H5V4zM28.5 11h-10a.5.5 0 0 0 0 1h10a.5.5 0 0 0 0-1zM28.5 14h-10a.5.5 0 0 0 0 1h10a.5.5 0 0 0 0-1zM28.5 17h-10a.5.5 0 0 0 0 1h10a.5.5 0 0 0 0-1zM28.5 20h-10a.5.5 0 0 0 0 1h10a.5.5 0 0 0 0-1zM28.5 23h-10a.5.5 0 0 0 0 1h10a.5.5 0 0 0 0-1zM4.5 24h10a.5.5 0 0 0 0-1h-10a.5.5 0 0 0 0 1zM28.5 26h-10a.5.5 0 0 0 0 1h10a.5.5 0 0 0 0-1zM4.5 27h10a.5.5 0 0 0 0-1h-10a.5.5 0 0 0 0 1z"/><path d="M5 31.947h32.02c.007 0 .013-.004.02-.004A4.951 4.951 0 0 0 41.948 27V.5a.447.447 0 1 0-.894 0V27c0 2.235-1.818 4.053-4.053 4.053S32.947 29.235 32.947 27V.5c0-.247-.2-.447-.447-.447H.5C.253.053.053.253.053.5V27A4.952 4.952 0 0 0 5 31.947zM.947.947h31.105V27c0 .306.037.603.09.895.011.058.02.116.033.173.062.278.144.547.251.806.019.047.042.091.063.137.108.242.233.475.378.695.017.025.03.052.047.077.158.23.338.443.531.643.042.043.083.085.127.127.186.18.382.351.594.5H5A4.058 4.058 0 0 1 .947 27V.947z"/></g></svg>