<svg id="svg" version="1.1" xmlns="http://www.w3.org/2000/svg" xmlns:xlink="http://www.w3.org/1999/xlink" width="400" height="400" viewBox="0, 0, 400,400"><g id="svgg"><path id="path0" d="M201.879 136.185 C 191.575 143.119,187.028 156.428,190.806 168.600 C 191.424 170.592,191.684 171.157,191.849 170.871 C 192.069 170.493,203.214 135.547,203.139 135.472 C 203.094 135.428,202.528 135.749,201.879 136.185 M252.932 154.566 C 252.892 154.640,248.467 168.410,243.097 185.167 L 233.335 215.634 248.619 230.967 L 263.903 246.300 258.948 251.200 C 256.223 253.895,242.825 267.329,229.176 281.053 L 204.359 306.006 198.175 325.253 L 191.991 344.500 192.645 345.873 C 194.477 349.717,197.323 352.990,201.700 356.287 C 210.657 363.033,224.892 362.937,234.630 356.064 C 238.261 353.502,326.000 265.481,328.166 262.226 C 335.066 251.865,334.811 239.086,327.511 229.326 C 326.562 228.057,253.043 154.359,252.932 154.566 " stroke="none" fill="#ec9230" fill-rule="evenodd"></path><path id="path1" d="M254.400 28.413 C 246.262 29.304,239.180 33.532,234.732 40.156 C 233.274 42.328,232.179 44.920,230.405 50.400 C 224.248 69.420,203.200 135.267,203.200 135.508 C 203.200 135.900,191.976 170.873,191.809 171.000 C 191.646 171.124,182.185 200.638,182.110 201.255 C 182.055 201.710,166.299 250.912,163.778 258.500 C 160.696 267.779,137.933 338.656,137.346 340.800 C 134.764 350.244,138.408 361.438,146.139 367.810 C 159.938 379.181,181.141 373.996,187.805 357.620 C 188.446 356.045,192.000 345.006,192.000 344.590 C 192.000 344.219,204.207 306.151,204.406 305.900 C 204.602 305.653,233.306 216.140,233.463 215.287 C 233.626 214.400,252.840 154.519,253.000 154.400 C 253.207 154.246,282.768 61.889,283.119 60.300 C 286.901 43.171,271.885 26.499,254.400 28.413 M146.600 246.700 C 146.973 247.085,147.323 247.400,147.378 247.400 C 147.433 247.400,147.173 247.085,146.800 246.700 C 146.427 246.315,146.077 246.000,146.022 246.000 C 145.967 246.000,146.227 246.315,146.600 246.700 " stroke="none" fill="#181616" fill-rule="evenodd"></path><path id="path2" d="M177.400 40.108 C 173.475 40.660,169.356 42.261,165.748 44.637 C 163.727 45.969,74.565 134.827,72.512 137.557 C 64.448 148.275,64.695 162.980,73.104 172.800 C 74.027 173.879,160.988 261.056,162.031 261.949 L 162.563 262.404 163.866 258.352 C 164.583 256.123,168.959 242.487,173.592 228.048 C 178.224 213.610,182.069 201.654,182.136 201.479 C 182.224 201.249,175.860 194.763,159.080 177.981 L 135.903 154.801 169.619 121.050 C 202.828 87.807,204.426 86.151,206.241 83.100 C 210.508 75.930,211.472 67.360,208.899 59.488 C 204.545 46.166,191.483 38.129,177.400 40.108 " stroke="none" fill="#2c3a1a" fill-rule="evenodd"></path></g></svg>